HIERARCHY
ROOT joint_Root
{
	OFFSET 0.0 0.0 0.0
	CHANNELS 6 Xposition Yposition Zposition Zrotation Xrotation Yrotation 
	JOINT Hips
	{
		OFFSET 4.5925 91.4895 -427.239
		CHANNELS 6 Xposition Yposition Zposition Zrotation Xrotation Yrotation 
		JOINT Spine
		{
			OFFSET 15.7357 0.0 0.0
			CHANNELS 6 Xposition Yposition Zposition Zrotation Xrotation Yrotation 
			JOINT Chest
			{
				OFFSET 8.98455 -0.406207 0.0
				CHANNELS 6 Xposition Yposition Zposition Zrotation Xrotation Yrotation 
				JOINT Neck
				{
					OFFSET 16.3773 0.0 0.0
					CHANNELS 6 Xposition Yposition Zposition Zrotation Xrotation Yrotation 
					JOINT Head
					{
						OFFSET 6.45672 0.0 0.0
						CHANNELS 6 Xposition Yposition Zposition Zrotation Xrotation Yrotation 
						End Site
						{
							OFFSET 0.0 0.0 0.0
						}
					}
				}
				JOINT Shoulder_L
				{
					OFFSET 12.9942 -0.242716 4.98039
					CHANNELS 6 Xposition Yposition Zposition Zrotation Xrotation Yrotation 
					JOINT UpperArm_L
					{
						OFFSET 5.34809 0.0 0.0
						CHANNELS 6 Xposition Yposition Zposition Zrotation Xrotation Yrotation 
						JOINT LowerArm_L
						{
							OFFSET 24.3286 1.87007e-05 0.0
							CHANNELS 6 Xposition Yposition Zposition Zrotation Xrotation Yrotation 
							JOINT Hand_L
							{
								OFFSET 22.2916 0.0 0.0
								CHANNELS 6 Xposition Yposition Zposition Zrotation Xrotation Yrotation 
								End Site
								{
									OFFSET 0.0 0.0 0.0
								}
							}
						}
					}
				}
				JOINT Shoulder_R
				{
					OFFSET 12.9945 -0.242716 -4.98039
					CHANNELS 6 Xposition Yposition Zposition Zrotation Xrotation Yrotation 
					JOINT UpperArm_R
					{
						OFFSET -5.34813 0.0 0.0
						CHANNELS 6 Xposition Yposition Zposition Zrotation Xrotation Yrotation 
						JOINT LowerArm_R
						{
							OFFSET -24.3289 0.000322201 0.0
							CHANNELS 6 Xposition Yposition Zposition Zrotation Xrotation Yrotation 
							JOINT Hand_R
							{
								OFFSET -22.2915 -0.000108084 0.0
								CHANNELS 6 Xposition Yposition Zposition Zrotation Xrotation Yrotation 
								End Site
								{
									OFFSET 0.0 0.0 0.0
								}
							}
						}
					}
				}
			}
		}
		JOINT UpperLeg_L
		{
			OFFSET -2.19248 -6.46944 0.0
			CHANNELS 6 Xposition Yposition Zposition Zrotation Xrotation Yrotation 
			JOINT LowerLeg_L
			{
				OFFSET 39.0811 0.0 -1.23785e-05
				CHANNELS 6 Xposition Yposition Zposition Zrotation Xrotation Yrotation 
				JOINT Foot_L
				{
					OFFSET 40.9854 0.0 -1.26872e-05
					CHANNELS 6 Xposition Yposition Zposition Zrotation Xrotation Yrotation 
					JOINT Toes_L
					{
						OFFSET 11.7543 0.0 0.0
						CHANNELS 6 Xposition Yposition Zposition Zrotation Xrotation Yrotation 
						End Site
						{
							OFFSET 0.0 0.0 0.0
						}
					}
				}
			}
		}
		JOINT UpperLeg_R
		{
			OFFSET -2.19251 6.46944 0.0
			CHANNELS 6 Xposition Yposition Zposition Zrotation Xrotation Yrotation 
			JOINT LowerLeg_R
			{
				OFFSET -39.0811 -0.00228153 -0.0401928
				CHANNELS 6 Xposition Yposition Zposition Zrotation Xrotation Yrotation 
				JOINT Foot_R
				{
					OFFSET -40.9854 0.0 0.0
					CHANNELS 6 Xposition Yposition Zposition Zrotation Xrotation Yrotation 
					JOINT Toes_R
					{
						OFFSET -11.7543 0.0 0.0
						CHANNELS 6 Xposition Yposition Zposition Zrotation Xrotation Yrotation 
						End Site
						{
							OFFSET 0.0 0.0 0.0
						}
					}
				}
			}
		}
	}
}
MOTION
Frames:	7
Frame Time:	0.0333333
0.000000 0.000000 0.000000 0.000000 0.000000 -0.000000 -4.200010 90.041000 3.127000 90.252700 -4.669170 12.782600 15.735700 0.000005 -0.000001 72.426500 82.704200 -69.589800 8.984550 -0.406207 -0.000000 6.275350 -4.429990 5.912290 16.377300 -0.000001 -0.000001 29.183500 -12.670200 9.926250 6.456720 -0.000001 -0.000000 17.993100 -16.827800 12.065600 12.994200 -0.242716 4.980390 -88.542400 -3.884690 -69.413800 5.348090 -0.000007 -0.000001 -61.672600 -44.083000 -78.480300 24.328600 0.000019 0.000005 18.756000 6.003570 -72.880700 22.291600 -0.000001 0.000005 23.070600 5.318450 -0.451286 12.994500 -0.242716 -4.980390 87.768900 11.284500 -78.739800 -5.348130 -0.000001 -0.000004 -58.599400 30.422400 -8.647040 -24.328900 0.000322 -0.000009 1.244470 3.831420 -18.023600 -22.291500 -0.000108 -0.000004 12.231400 5.419460 -3.580680 -2.192480 -6.469440 -0.000000 -170.990000 -14.047000 5.557070 39.081100 -0.000007 -0.000012 -0.286463 0.472779 31.212800 40.985400 -0.000006 -0.000013 -2.588900 5.903180 -72.643000 11.754300 -0.000000 0.000003 -0.000082 -0.000866 -16.610900 -2.192510 6.469440 -0.000001 173.240000 21.369000 -173.139000 -39.081100 -0.002282 -0.040193 -0.255214 0.421540 31.519400 -40.985400 0.000008 0.000006 5.586950 12.768100 -75.411200 -11.754300 -0.000006 -0.000006 -0.000765 -0.012017 -17.062000
0.000000 0.000000 0.000000 0.000000 0.000000 -0.000000 -4.274770 90.051400 3.111240 90.235100 -4.730290 12.653200 15.735700 0.000005 -0.000001 72.278900 82.755900 -69.428800 8.984550 -0.406207 -0.000000 6.166000 -4.437530 5.935270 16.377300 -0.000001 -0.000001 29.133400 -12.658100 10.075800 6.456720 -0.000001 -0.000000 18.191400 -16.862600 12.274000 12.994200 -0.242716 4.980390 -88.516300 -3.959060 -69.436400 5.348090 -0.000007 -0.000001 -61.685000 -44.026300 -78.281700 24.328600 0.000019 0.000005 18.792200 5.983660 -72.967300 22.291600 -0.000001 0.000005 23.040900 5.320400 -0.507347 12.994500 -0.242716 -4.980390 87.807200 11.208300 -78.856100 -5.348130 -0.000001 -0.000004 -58.699500 30.472300 -8.576990 -24.328900 0.000322 -0.000009 1.229340 3.773550 -18.073700 -22.291500 -0.000108 -0.000004 12.257300 5.418940 -3.563340 -2.192480 -6.469440 -0.000000 -170.951000 -14.056600 5.452660 39.081100 -0.000007 -0.000012 -0.288725 0.477657 31.151900 40.985400 -0.000006 -0.000013 -2.651000 5.892590 -72.593700 11.754300 -0.000000 0.000003 -0.000093 -0.000965 -16.614700 -2.192510 6.469440 -0.000001 173.385000 21.343100 -173.273000 -39.081100 -0.002282 -0.040193 -0.251635 0.416610 31.463900 -40.985400 0.000008 0.000006 5.632160 12.743900 -75.384400 -11.754300 -0.000006 -0.000006 -0.000752 -0.011814 -17.053700
0.000000 0.000000 0.000000 0.000000 0.000000 -0.000000 -4.327260 90.058300 3.103760 90.257200 -4.783350 12.630300 15.735700 0.000005 -0.000001 72.313400 82.763700 -69.463200 8.984550 -0.406207 -0.000000 6.153290 -4.424860 5.934340 16.377300 -0.000001 -0.000001 29.131400 -12.607000 10.213000 6.456720 -0.000001 -0.000000 18.268600 -16.911700 12.543800 12.994200 -0.242716 4.980390 -88.499400 -4.019900 -69.510200 5.348090 -0.000007 -0.000001 -61.564100 -44.007500 -78.038700 24.328600 0.000019 0.000005 18.880100 6.006780 -72.986300 22.291600 -0.000001 0.000005 23.055100 5.319440 -0.479667 12.994500 -0.242716 -4.980390 87.838500 11.146200 -78.952400 -5.348130 -0.000001 -0.000004 -58.821400 30.454900 -8.529050 -24.328900 0.000322 -0.000009 1.230330 3.790960 -18.009800 -22.291500 -0.000108 -0.000004 12.203000 5.419820 -3.593060 -2.192480 -6.469440 -0.000000 -170.912000 -14.147800 5.478580 39.081100 -0.000007 -0.000012 -0.287112 0.476305 31.081700 40.985400 -0.000006 -0.000013 -2.684830 5.933690 -72.548900 11.754300 -0.000000 0.000003 -0.000089 -0.000928 -16.613300 -2.192510 6.469440 -0.000001 173.416000 21.309400 -173.289000 -39.081100 -0.002282 -0.040193 -0.254312 0.421485 31.433600 -40.985400 0.000008 0.000006 5.674710 12.759900 -75.383100 -11.754300 -0.000006 -0.000006 -0.000812 -0.012693 -17.089400
0.000000 0.000000 0.000000 0.000000 0.000000 -0.000000 -4.367290 90.060800 3.082210 90.282000 -4.833510 12.559100 15.735700 0.000005 -0.000001 72.361000 82.771900 -69.507100 8.984550 -0.406207 -0.000000 6.140990 -4.408870 5.940430 16.377300 -0.000001 -0.000001 29.117000 -12.616200 10.358500 6.456720 -0.000001 -0.000000 18.300100 -16.955900 12.745400 12.994200 -0.242716 4.980390 -88.478800 -4.089880 -69.577900 5.348090 -0.000007 -0.000001 -61.550800 -44.026600 -77.866000 24.328600 0.000019 0.000005 18.957000 6.044460 -72.956500 22.291600 -0.000001 0.000005 23.022900 5.318080 -0.440867 12.994500 -0.242716 -4.980390 87.852800 11.109000 -78.988500 -5.348130 -0.000001 -0.000004 -58.893100 30.553500 -8.475730 -24.328900 0.000322 -0.000009 1.205790 3.711580 -18.026500 -22.291500 -0.000108 -0.000004 12.152900 5.416200 -3.471390 -2.192480 -6.469440 -0.000000 -170.892000 -14.280900 5.416900 39.081100 -0.000007 -0.000012 -0.287383 0.477191 31.058500 40.985400 -0.000006 -0.000013 -2.691100 6.005050 -72.513100 11.754300 -0.000000 0.000003 -0.000086 -0.000903 -16.612300 -2.192510 6.469440 -0.000001 173.463000 21.295500 -173.404000 -39.081100 -0.002282 -0.040193 -0.249562 0.413395 31.453200 -40.985400 0.000008 0.000006 5.715810 12.776800 -75.385400 -11.754300 -0.000006 -0.000006 -0.000784 -0.012291 -17.073100
0.000000 0.000000 0.000000 0.000000 0.000000 -0.000000 -4.394670 90.073000 3.042150 90.310200 -4.858070 12.458000 15.735700 0.000005 -0.000001 72.280700 82.792700 -69.408400 8.984550 -0.406207 -0.000000 6.096200 -4.417030 5.975930 16.377300 -0.000001 -0.000001 29.168800 -12.588200 10.452100 6.456720 -0.000001 -0.000000 18.360600 -17.015100 12.926800 12.994200 -0.242716 4.980390 -88.450700 -4.179080 -69.638000 5.348090 -0.000007 -0.000001 -61.660900 -43.966100 -77.669800 24.328600 0.000019 0.000005 18.960100 6.052680 -72.937500 22.291600 -0.000001 0.000005 22.954900 5.320100 -0.498834 12.994500 -0.242716 -4.980390 87.870300 11.088300 -79.056400 -5.348130 -0.000001 -0.000004 -58.949300 30.506300 -8.350840 -24.328900 0.000322 -0.000009 1.230460 3.793830 -17.998800 -22.291500 -0.000108 -0.000004 12.119100 5.416940 -3.496370 -2.192480 -6.469440 -0.000000 -170.915000 -14.344100 5.329680 39.081100 -0.000007 -0.000012 -0.286570 0.477095 30.991900 40.985400 -0.000006 -0.000013 -2.707760 6.025310 -72.452200 11.754300 -0.000000 0.000003 -0.000092 -0.000961 -16.614500 -2.192510 6.469440 -0.000001 173.509000 21.295700 -173.540000 -39.081100 -0.002282 -0.040193 -0.250931 0.415903 31.436600 -40.985400 0.000008 0.000006 5.745310 12.786700 -75.356500 -11.754300 -0.000006 -0.000006 -0.000875 -0.013609 -17.126700
0.000000 0.000000 0.000000 0.000000 0.000000 -0.000000 -4.410410 90.090400 2.989940 90.342700 -4.872580 12.304500 15.735700 0.000005 -0.000001 72.147600 82.819300 -69.262000 8.984550 -0.406207 -0.000000 6.036390 -4.434470 6.000970 16.377300 -0.000001 -0.000001 29.148500 -12.579700 10.459700 6.456720 -0.000001 -0.000000 18.566400 -16.998300 13.166400 12.994200 -0.242716 4.980390 -88.423400 -4.264560 -69.689000 5.348090 -0.000007 -0.000001 -61.784700 -43.913300 -77.533800 24.328600 0.000019 0.000005 19.065300 6.100240 -72.908000 22.291600 -0.000001 0.000005 22.997800 5.315820 -0.375895 12.994500 -0.242716 -4.980390 87.883000 11.082800 -79.114700 -5.348130 -0.000001 -0.000004 -59.010400 30.454500 -8.249840 -24.328900 0.000322 -0.000009 1.240300 3.842930 -17.916800 -22.291500 -0.000108 -0.000004 12.092800 5.416370 -3.477140 -2.192480 -6.469440 -0.000000 -170.984000 -14.398100 5.155460 39.081100 -0.000007 -0.000012 -0.283797 0.473632 30.930300 40.985400 -0.000006 -0.000013 -2.715920 6.019500 -72.370900 11.754300 -0.000000 0.000003 -0.000082 -0.000867 -16.611000 -2.192510 6.469440 -0.000001 173.625000 21.196900 -173.774000 -39.081100 -0.002282 -0.040193 -0.248122 0.411558 31.421200 -40.985400 0.000008 0.000006 5.730930 12.667700 -75.292700 -11.754300 -0.000006 -0.000006 -0.000819 -0.012797 -17.093600
0.000000 0.000000 0.000000 0.000000 0.000000 -0.000000 -4.408350 90.105900 2.946540 90.390900 -4.915170 12.220200 15.735700 0.000005 -0.000001 72.123500 82.835600 -69.224900 8.984550 -0.406207 -0.000000 6.003780 -4.431310 6.025560 16.377300 -0.000001 -0.000001 29.162400 -12.551400 10.398400 6.456720 -0.000001 -0.000000 18.703200 -16.921500 13.369200 12.994200 -0.242716 4.980390 -88.400100 -4.334290 -69.717200 5.348090 -0.000007 -0.000001 -61.895200 -43.828000 -77.428700 24.328600 0.000019 0.000005 19.024900 6.135870 -72.777400 22.291600 -0.000001 0.000005 22.981000 5.318520 -0.453288 12.994500 -0.242716 -4.980390 87.894000 11.031600 -79.121900 -5.348130 -0.000001 -0.000004 -59.144300 30.364800 -8.087300 -24.328900 0.000322 -0.000009 1.285290 4.002940 -17.831200 -22.291500 -0.000108 -0.000004 12.100600 5.416210 -3.471610 -2.192480 -6.469440 -0.000000 -171.025000 -14.549700 5.092000 39.081100 -0.000007 -0.000012 -0.281887 0.471884 30.853100 40.985400 -0.000006 -0.000013 -2.699080 6.066870 -72.301500 11.754300 -0.000000 0.000003 -0.000078 -0.000834 -16.609700 -2.192510 6.469440 -0.000001 173.658000 21.103600 -173.907000 -39.081100 -0.002282 -0.040193 -0.248044 0.411704 31.404300 -40.985400 0.000008 0.000006 5.714910 12.611800 -75.248100 -11.754300 -0.000006 -0.000006 -0.000778 -0.012196 -17.069200
